<?xml version="1.0" encoding="UTF-8"?>
<!DOCTYPE svg PUBLIC "-//W3C//DTD SVG 1.1//EN" "http://www.w3.org/Graphics/SVG/1.1/DTD/svg11.dtd">
<svg xmlns="http://www.w3.org/2000/svg" version="1.1" width="667px" height="607px" style="shape-rendering:geometricPrecision; text-rendering:geometricPrecision; image-rendering:optimizeQuality; fill-rule:evenodd; clip-rule:evenodd" xmlns:xlink="http://www.w3.org/1999/xlink">
<g><path style="opacity:0.985" fill="#fe5500" d="M 524.5,168.5 C 523.672,174.987 523.172,181.654 523,188.5C 521.601,197.23 520.101,205.896 518.5,214.5C 510.868,199.247 501.701,184.914 491,171.5C 490.107,170.289 489.274,170.289 488.5,171.5C 463.031,206.573 449.697,245.906 448.5,289.5C 456.167,289.5 463.833,289.5 471.5,289.5C 465.565,299.035 458.898,308.035 451.5,316.5C 450.5,316.5 449.5,316.5 448.5,316.5C 448.5,317.5 448.5,318.5 448.5,319.5C 447.833,319.5 447.5,319.833 447.5,320.5C 440.133,328.868 432.133,336.535 423.5,343.5C 421.902,334.708 420.902,325.708 420.5,316.5C 395.833,316.5 371.167,316.5 346.5,316.5C 346.5,341.833 346.5,367.167 346.5,392.5C 337.545,395.82 328.545,399.153 319.5,402.5C 319.5,378.5 319.5,354.5 319.5,330.5C 339.194,320.802 355.528,307.135 368.5,289.5C 368.833,289.5 369.167,289.5 369.5,289.5C 386.833,289.5 404.167,289.5 421.5,289.5C 421.5,285.5 421.5,281.5 421.5,277.5C 424.53,229.97 440.53,187.47 469.5,150C 434.473,119.141 393.473,101.974 346.5,98.5C 346.5,105.167 346.5,111.833 346.5,118.5C 337.811,114.322 328.811,110.989 319.5,108.5C 319.5,105.167 319.5,101.833 319.5,98.5C 304.576,98.7688 290.243,101.435 276.5,106.5C 270.004,107.554 263.671,109.221 257.5,111.5C 223.102,121.572 196.102,141.572 176.5,171.5C 147.443,205.297 131.443,244.63 128.5,289.5C 140.833,289.5 153.167,289.5 165.5,289.5C 170.603,299.376 176.937,308.376 184.5,316.5C 165.833,316.5 147.167,316.5 128.5,316.5C 131.193,349.241 140.526,379.908 156.5,408.5C 143.873,405.847 131.54,402.18 119.5,397.5C 96.097,342.62 93.2637,286.62 111,229.5C 139.528,150.807 194.028,99.8074 274.5,76.5C 371.084,55.7576 451.584,82.4243 516,156.5C 518.664,160.657 521.497,164.657 524.5,168.5 Z"/></g>
<g><path style="opacity:1" fill="#ffa700" d="M 319.5,108.5 C 319.167,108.5 318.833,108.5 318.5,108.5C 304.81,105.3 290.81,104.633 276.5,106.5C 290.243,101.435 304.576,98.7688 319.5,98.5C 319.5,101.833 319.5,105.167 319.5,108.5 Z"/></g>
<g><path style="opacity:1" fill="#ffaa00" d="M 421.5,277.5 C 420.518,280.962 420.185,284.629 420.5,288.5C 403.833,288.5 387.167,288.5 370.5,288.5C 391.901,259.327 400.734,226.661 397,190.5C 391.232,159.602 375.066,135.935 348.5,119.5C 347.5,175.829 347.167,232.163 347.5,288.5C 354.833,288.5 362.167,288.5 369.5,288.5C 369.5,288.833 369.5,289.167 369.5,289.5C 369.167,289.5 368.833,289.5 368.5,289.5C 361.167,289.5 353.833,289.5 346.5,289.5C 346.5,232.5 346.5,175.5 346.5,118.5C 346.5,111.833 346.5,105.167 346.5,98.5C 393.473,101.974 434.473,119.141 469.5,150C 440.53,187.47 424.53,229.97 421.5,277.5 Z"/></g>
<g><path style="opacity:1" fill="#ffd31c" d="M 318.5,108.5 C 318.5,168.5 318.5,228.5 318.5,288.5C 294.167,288.5 269.833,288.5 245.5,288.5C 244.213,236.809 227.88,190.642 196.5,150C 214.626,133.715 234.959,120.882 257.5,111.5C 263.671,109.221 270.004,107.554 276.5,106.5C 290.81,104.633 304.81,105.3 318.5,108.5 Z"/></g>
<g><path style="opacity:1" fill="#ffb71d" d="M 318.5,108.5 C 318.833,108.5 319.167,108.5 319.5,108.5C 319.5,168.833 319.5,229.167 319.5,289.5C 294.661,289.831 269.994,289.498 245.5,288.5C 269.833,288.5 294.167,288.5 318.5,288.5C 318.5,228.5 318.5,168.5 318.5,108.5 Z"/></g>
<g><path style="opacity:1" fill="#ff7f1c" d="M 319.5,108.5 C 328.811,110.989 337.811,114.322 346.5,118.5C 346.5,175.5 346.5,232.5 346.5,289.5C 353.833,289.5 361.167,289.5 368.5,289.5C 355.528,307.135 339.194,320.802 319.5,330.5C 319.5,325.833 319.5,321.167 319.5,316.5C 294.833,316.5 270.167,316.5 245.5,316.5C 245.23,325.864 244.563,335.198 243.5,344.5C 243.768,346.099 243.434,347.432 242.5,348.5C 242.5,347.167 242.5,345.833 242.5,344.5C 233.509,343.336 224.843,341.003 216.5,337.5C 216.5,337.167 216.5,336.833 216.5,336.5C 216.954,329.841 217.287,323.174 217.5,316.5C 206.833,316.5 196.167,316.5 185.5,316.5C 185.167,316.5 184.833,316.5 184.5,316.5C 176.937,308.376 170.603,299.376 165.5,289.5C 183.167,289.5 200.833,289.5 218.5,289.5C 218.737,288.209 218.404,287.209 217.5,286.5C 215.936,245.87 203.769,208.87 181,175.5C 179.693,173.808 178.193,172.475 176.5,171.5C 196.102,141.572 223.102,121.572 257.5,111.5C 234.959,120.882 214.626,133.715 196.5,150C 227.88,190.642 244.213,236.809 245.5,288.5C 269.994,289.498 294.661,289.831 319.5,289.5C 319.5,229.167 319.5,168.833 319.5,108.5 Z"/></g>
<g><path style="opacity:1" fill="#ffd31c" d="M 370.5,288.5 C 370.167,288.5 369.833,288.5 369.5,288.5C 362.167,288.5 354.833,288.5 347.5,288.5C 347.167,232.163 347.5,175.829 348.5,119.5C 375.066,135.935 391.232,159.602 397,190.5C 400.734,226.661 391.901,259.327 370.5,288.5 Z"/></g>
<g><path style="opacity:0.983" fill="#010000" d="M 524.5,168.5 C 567.712,233.144 577.878,302.811 555,377.5C 524.503,459.662 466.67,511.162 381.5,532C 293.053,547.295 218.22,522.462 157,457.5C 141.225,439.631 128.725,419.631 119.5,397.5C 131.54,402.18 143.873,405.847 156.5,408.5C 162.414,417.967 169.081,426.967 176.5,435.5C 182.149,429.541 186.815,422.875 190.5,415.5C 200.427,417.052 210.427,417.718 220.5,417.5C 214.335,431.494 206.335,444.327 196.5,456C 231.431,487.266 272.431,504.433 319.5,507.5C 319.5,472.5 319.5,437.5 319.5,402.5C 328.545,399.153 337.545,395.82 346.5,392.5C 346.5,430.833 346.5,469.167 346.5,507.5C 386.13,504.68 422.13,491.847 454.5,469C 459.52,464.643 464.52,460.31 469.5,456C 443.96,422.928 428.627,385.428 423.5,343.5C 432.133,336.535 440.133,328.868 447.5,320.5C 448.167,322.833 448.833,325.167 449.5,327.5C 452.385,367.499 465.718,403.499 489.5,435.5C 518.778,401.362 534.778,361.695 537.5,316.5C 508.833,316.5 480.167,316.5 451.5,316.5C 458.898,308.035 465.565,299.035 471.5,289.5C 493.833,289.5 516.167,289.5 538.5,289.5C 538.737,288.209 538.404,287.209 537.5,286.5C 535.726,261.293 529.392,237.293 518.5,214.5C 520.101,205.896 521.601,197.23 523,188.5C 523.172,181.654 523.672,174.987 524.5,168.5 Z"/></g>
<g><path style="opacity:1" fill="#ffd31c" d="M 176.5,171.5 C 178.193,172.475 179.693,173.808 181,175.5C 203.769,208.87 215.936,245.87 217.5,286.5C 200.532,288.486 183.199,289.153 165.5,288.5C 153.944,264.591 151.444,239.591 158,213.5C 161.967,198.394 168.134,184.394 176.5,171.5 Z"/></g>
<g><path style="opacity:1" fill="#fea900" d="M 518.5,214.5 C 529.392,237.293 535.726,261.293 537.5,286.5C 515.686,288.163 493.686,289.163 471.5,289.5C 463.833,289.5 456.167,289.5 448.5,289.5C 449.697,245.906 463.031,206.573 488.5,171.5C 489.274,170.289 490.107,170.289 491,171.5C 501.701,184.914 510.868,199.247 518.5,214.5 Z"/></g>
<g><path style="opacity:1" fill="#ffa800" d="M 176.5,171.5 C 168.134,184.394 161.967,198.394 158,213.5C 151.444,239.591 153.944,264.591 165.5,288.5C 165.5,288.833 165.5,289.167 165.5,289.5C 153.167,289.5 140.833,289.5 128.5,289.5C 131.443,244.63 147.443,205.297 176.5,171.5 Z"/></g>
<g><path style="opacity:1" fill="#ffac1d" d="M 217.5,286.5 C 218.404,287.209 218.737,288.209 218.5,289.5C 200.833,289.5 183.167,289.5 165.5,289.5C 165.5,289.167 165.5,288.833 165.5,288.5C 183.199,289.153 200.532,288.486 217.5,286.5 Z"/></g>
<g><path style="opacity:1" fill="#ff8000" d="M 421.5,277.5 C 421.5,281.5 421.5,285.5 421.5,289.5C 404.167,289.5 386.833,289.5 369.5,289.5C 369.5,289.167 369.5,288.833 369.5,288.5C 369.833,288.5 370.167,288.5 370.5,288.5C 387.167,288.5 403.833,288.5 420.5,288.5C 420.185,284.629 420.518,280.962 421.5,277.5 Z"/></g>
<g><path style="opacity:1" fill="#885b00" d="M 537.5,286.5 C 538.404,287.209 538.737,288.209 538.5,289.5C 516.167,289.5 493.833,289.5 471.5,289.5C 493.686,289.163 515.686,288.163 537.5,286.5 Z"/></g>
<g><path style="opacity:1" fill="#fea900" d="M 184.5,316.5 C 184.833,316.5 185.167,316.5 185.5,316.5C 193.999,325.922 204.332,332.588 216.5,336.5C 216.5,336.833 216.5,337.167 216.5,337.5C 212.714,365.055 204.047,391.055 190.5,415.5C 186.815,422.875 182.149,429.541 176.5,435.5C 169.081,426.967 162.414,417.967 156.5,408.5C 140.526,379.908 131.193,349.241 128.5,316.5C 147.167,316.5 165.833,316.5 184.5,316.5 Z"/></g>
<g><path style="opacity:1" fill="#ffd21c" d="M 185.5,316.5 C 196.167,316.5 206.833,316.5 217.5,316.5C 217.287,323.174 216.954,329.841 216.5,336.5C 204.332,332.588 193.999,325.922 185.5,316.5 Z"/></g>
<g><path style="opacity:1" fill="#ffd31c" d="M 319.5,330.5 C 295.531,342.761 270.198,347.428 243.5,344.5C 244.563,335.198 245.23,325.864 245.5,316.5C 270.167,316.5 294.833,316.5 319.5,316.5C 319.5,321.167 319.5,325.833 319.5,330.5 Z"/></g>
<g><path style="opacity:1" fill="#fda900" d="M 423.5,343.5 C 428.627,385.428 443.96,422.928 469.5,456C 464.52,460.31 459.52,464.643 454.5,469C 422.13,491.847 386.13,504.68 346.5,507.5C 346.5,469.167 346.5,430.833 346.5,392.5C 346.5,367.167 346.5,341.833 346.5,316.5C 371.167,316.5 395.833,316.5 420.5,316.5C 420.902,325.708 421.902,334.708 423.5,343.5 Z"/></g>
<g><path style="opacity:1" fill="#fda800" d="M 451.5,316.5 C 480.167,316.5 508.833,316.5 537.5,316.5C 534.778,361.695 518.778,401.362 489.5,435.5C 465.718,403.499 452.385,367.499 449.5,327.5C 449.806,324.615 449.473,321.948 448.5,319.5C 448.5,318.5 448.5,317.5 448.5,316.5C 449.5,316.5 450.5,316.5 451.5,316.5 Z"/></g>
<g><path style="opacity:1" fill="#915e00" d="M 447.5,320.5 C 447.5,319.833 447.833,319.5 448.5,319.5C 449.473,321.948 449.806,324.615 449.5,327.5C 448.833,325.167 448.167,322.833 447.5,320.5 Z"/></g>
<g><path style="opacity:1" fill="#fda900" d="M 319.5,330.5 C 319.5,354.5 319.5,378.5 319.5,402.5C 319.5,437.5 319.5,472.5 319.5,507.5C 272.431,504.433 231.431,487.266 196.5,456C 206.335,444.327 214.335,431.494 220.5,417.5C 231.819,395.871 239.153,372.871 242.5,348.5C 243.434,347.432 243.768,346.099 243.5,344.5C 270.198,347.428 295.531,342.761 319.5,330.5 Z"/></g>
<g><path style="opacity:1" fill="#fe5500" d="M 216.5,337.5 C 224.843,341.003 233.509,343.336 242.5,344.5C 242.5,345.833 242.5,347.167 242.5,348.5C 239.153,372.871 231.819,395.871 220.5,417.5C 210.427,417.718 200.427,417.052 190.5,415.5C 204.047,391.055 212.714,365.055 216.5,337.5 Z"/></g>
</svg>
